<svg width="614" height="614" viewBox="0 0 614 614" version="1.1" xmlns="http://www.w3.org/2000/svg" xmlns:xlink="http://www.w3.org/1999/xlink" >
    <g id="Page-1" stroke="none" stroke-width="1" fill="none" fill-rule="evenodd">
        <path d="M210.699674,139.965591 L210.699674,79.2258065 L145.97062,79.2258065 C139.365615,55.4580645 129.458107,29.0494624 117.569097,0 L52.179543,17.8258065 C62.0870511,37.6322581 71.3340588,58.0989247 79.9205658,79.2258065 L1.13686838e-13,79.2258065 L1.13686838e-13,139.965591 L210.699674,139.965591 Z M554.159956,216.550538 L554.159956,157.131183 L437.911861,157.131183 L437.911861,117.51828 L576.616975,117.51828 L576.616975,56.7784946 L437.911861,56.7784946 L437.911861,1.98064516 L369.880305,1.98064516 L369.880305,56.7784946 L232.496192,56.7784946 L232.496192,117.51828 L369.880305,117.51828 L369.880305,157.131183 L255.613711,157.131183 L255.613711,216.550538 L554.159956,216.550538 Z M191.545158,236.356989 L191.545158,179.578495 L23.7780196,179.578495 L23.7780196,236.356989 L191.545158,236.356989 Z M286.657236,368.4 L286.657236,308.32043 L524.437432,308.32043 L524.437432,368.4 L587.184984,368.4 L587.184984,250.221505 L223.909684,250.221505 L223.909684,368.4 L286.657236,368.4 Z M191.545158,328.126882 L191.545158,271.348387 L23.7780196,271.348387 L23.7780196,328.126882 L191.545158,328.126882 Z M244.385201,614 C303.83025,580.989247 341.478781,540.055914 356.670294,490.539785 C369.880305,451.587097 376.48531,404.711828 376.48531,349.253763 L316.379761,349.253763 C315.71926,398.109677 309.774755,438.382796 297.885745,469.412903 C282.033732,505.064516 250.329706,536.094624 201.452666,561.843011 L244.385201,614 Z M537.647443,602.776344 C560.764962,602.116129 577.277476,596.834409 586.524483,587.591398 C594.45049,577.688172 601.715996,543.356989 607,485.258065 L548.215452,464.791398 C546.23395,511.006452 542.931447,536.094624 538.968444,540.716129 C535.665941,544.677419 531.042437,546.658065 525.758433,546.658065 L497.35691,546.658065 C486.788901,546.658065 482.165397,540.716129 482.165397,530.152688 L482.165397,349.253763 L421.399347,349.253763 L421.399347,543.356989 C421.399347,559.862366 426.022851,574.387097 435.930359,586.270968 C445.177367,596.834409 459.047878,602.776344 476.881393,602.776344 L537.647443,602.776344 Z M78.5995647,602.776344 L78.5995647,572.406452 L198.810664,572.406452 L198.810664,369.72043 L15.8520131,369.72043 L15.8520131,602.776344 L78.5995647,602.776344 Z M137.384113,515.627957 L78.5995647,515.627957 L78.5995647,425.178495 L137.384113,425.178495 L137.384113,515.627957 Z" id="шкн" fill="#FF2F52" fill-rule="nonzero"></path>
    </g>
</svg>
