<?xml version="1.0" encoding="UTF-8"?>
<svg width="21px" height="21px" viewBox="0 0 21 21" version="1.1" xmlns="http://www.w3.org/2000/svg" xmlns:xlink="http://www.w3.org/1999/xlink">
	<g stroke="none" stroke-width="1" fill="none" fill-rule="evenodd">
		<g transform="translate(-1, -1)" fill="#4d2a32" fill-rule="nonzero">
			<path d="M11.7089844,21.9101562 C13.0696615,21.9101562 14.3505859,21.6497396 15.5517578,21.1289062 C16.7529297,20.6080729 17.8125,19.8886719 18.7304688,18.9707031 C19.6484375,18.0527344 20.3678385,16.9931641 20.8886719,15.7919922 C21.4095052,14.5908203 21.6699219,13.3098958 21.6699219,11.9492188 C21.6699219,10.5885417 21.4095052,9.30761719 20.8886719,8.10644531 C20.3678385,6.90527344 19.6484375,5.84570312 18.7304688,4.92773438 C17.8125,4.00976562 16.7513021,3.29036458 15.546875,2.76953125 C14.3424479,2.24869792 13.0598958,1.98828125 11.6992188,1.98828125 C10.3385417,1.98828125 9.05761719,2.24869792 7.85644531,2.76953125 C6.65527344,3.29036458 5.59733073,4.00976562 4.68261719,4.92773438 C3.76790365,5.84570312 3.05013021,6.90527344 2.52929688,8.10644531 C2.00846354,9.30761719 1.74804688,10.5885417 1.74804688,11.9492188 C1.74804688,13.3098958 2.00846354,14.5908203 2.52929688,15.7919922 C3.05013021,16.9931641 3.76953125,18.0527344 4.6875,18.9707031 C5.60546875,19.8886719 6.66503906,20.6080729 7.86621094,21.1289062 C9.06738281,21.6497396 10.3483073,21.9101562 11.7089844,21.9101562 Z M11.7089844,20.25 C10.5566406,20.25 9.47916667,20.0351562 8.4765625,19.6054688 C7.47395833,19.1757812 6.59342448,18.5817057 5.83496094,17.8232422 C5.0764974,17.0647786 4.48404948,16.1842448 4.05761719,15.1816406 C3.6311849,14.1790365 3.41796875,13.1015625 3.41796875,11.9492188 C3.41796875,10.796875 3.6311849,9.71940104 4.05761719,8.71679688 C4.48404948,7.71419271 5.07486979,6.83203125 5.83007812,6.0703125 C6.58528646,5.30859375 7.46419271,4.71451823 8.46679688,4.28808594 C9.46940104,3.86165365 10.546875,3.6484375 11.6992188,3.6484375 C12.8515625,3.6484375 13.9290365,3.86165365 14.9316406,4.28808594 C15.9342448,4.71451823 16.8164062,5.30859375 17.578125,6.0703125 C18.3398438,6.83203125 18.9355469,7.71419271 19.3652344,8.71679688 C19.7949219,9.71940104 20.0097656,10.796875 20.0097656,11.9492188 C20.0097656,13.1015625 19.7965495,14.1790365 19.3701172,15.1816406 C18.9436849,16.1842448 18.351237,17.0647786 17.5927734,17.8232422 C16.8343099,18.5817057 15.9521484,19.1757812 14.9462891,19.6054688 C13.9404297,20.0351562 12.8613281,20.25 11.7089844,20.25 Z M10,17.3203125 L13.9746094,17.3203125 C14.1764323,17.3203125 14.3457031,17.2552083 14.4824219,17.125 C14.6191406,16.9947917 14.6875,16.8320312 14.6875,16.6367188 C14.6875,16.4414062 14.6191406,16.2786458 14.4824219,16.1484375 C14.3457031,16.0182292 14.1764323,15.953125 13.9746094,15.953125 L12.7636719,15.953125 L12.7636719,10.9824219 C12.7636719,10.7154948 12.6985677,10.5022786 12.5683594,10.3427734 C12.438151,10.1832682 12.249349,10.1035156 12.0019531,10.1035156 L10.1660156,10.1035156 C9.96419271,10.1035156 9.79492188,10.1686198 9.65820312,10.2988281 C9.52148438,10.4290365 9.453125,10.5917969 9.453125,10.7871094 C9.453125,10.9824219 9.52148438,11.1451823 9.65820312,11.2753906 C9.79492188,11.405599 9.96419271,11.4707031 10.1660156,11.4707031 L11.2109375,11.4707031 L11.2109375,15.953125 L10,15.953125 C9.79817708,15.953125 9.62890625,16.0182292 9.4921875,16.1484375 C9.35546875,16.2786458 9.28710938,16.4414062 9.28710938,16.6367188 C9.28710938,16.8320312 9.35546875,16.9947917 9.4921875,17.125 C9.62890625,17.2552083 9.79817708,17.3203125 10,17.3203125 Z M11.6210938,8.47265625 C11.9791667,8.47265625 12.2802734,8.34895833 12.5244141,8.1015625 C12.7685547,7.85416667 12.890625,7.5546875 12.890625,7.203125 C12.890625,6.84505208 12.7685547,6.54231771 12.5244141,6.29492188 C12.2802734,6.04752604 11.9791667,5.92382812 11.6210938,5.92382812 C11.2695312,5.92382812 10.9700521,6.04752604 10.7226562,6.29492188 C10.4752604,6.54231771 10.3515625,6.84505208 10.3515625,7.203125 C10.3515625,7.5546875 10.4752604,7.85416667 10.7226562,8.1015625 C10.9700521,8.34895833 11.2695312,8.47265625 11.6210938,8.47265625 Z"></path>
		</g>
	</g>
</svg>
